<svg xmlns="http://www.w3.org/2000/svg" width="256" height="256" viewBox="0 0 256 256" preserveAspectRatio="xMidYMid"><path d="M0 0L256 0 256 256 0 256 0 0Z" fill="#F7DF1E"/><path d="M67.3 213.9L86.9 202.1C90.7 208.8 94.1 214.4 102.4 214.4 110.3 214.4 115.3 211.4 115.3 199.3L115.3 117.5 139.3 117.5 139.3 199.7C139.3 224.6 124.7 235.9 103.4 235.9 84.2 235.9 73 226 67.3 213.9"/><path d="M152.4 211.4L172 200C177.1 208.4 183.8 214.6 195.7 214.6 205.7 214.6 212 209.6 212 202.8 212 194.5 205.5 191.6 194.5 186.8L188.5 184.2C171.1 176.8 159.6 167.5 159.6 147.9 159.6 129.9 173.3 116.2 194.8 116.2 210.1 116.2 221.1 121.5 229 135.4L210.3 147.4C206.2 140 201.7 137.1 194.8 137.1 187.8 137.1 183.3 141.6 183.3 147.4 183.3 154.6 187.8 157.6 198.1 162L204.1 164.6C224.6 173.4 236.1 182.3 236.1 202.4 236.1 224.1 219.1 235.9 196.2 235.9 173.9 235.9 159.4 225.3 152.4 211.4"/></svg>