<svg xmlns="http://www.w3.org/2000/svg" width="256" height="204" viewBox="0 0 256 204" preserveAspectRatio="xMidYMid"><style>.a{fill:#00B0FF;}.b{fill:#0081CB;}</style><polygon points="0 110.8 0 0 96 55.4 96 92.4 32 55.4 32 129.3" class="a"/><polygon points="96 55.4 192 0 192 110.8 128 147.8 96 129.3 160 92.4 160 55.4 96 92.4" class="b"/><polygon points="96 129.3 96 166.3 160 203.2 160 166.3" class="a"/><path d="M160 203.2L256 147.8 256 73.9 224 92.4 224 129.3 160 166.3 160 203.2ZM224 55.4L224 18.5 256 0 256 36.9 224 55.4Z" class="b"/></svg>