<svg xmlns="http://www.w3.org/2000/svg" width="256" height="230" viewBox="0 0 256 230" preserveAspectRatio="xMidYMid"><style>.a{fill:#FFF;}.b{fill:#53C1DE;}</style><path d="M0.8 114.8C0.8 134 19.5 151.9 49.1 162 43.2 191.8 48 215.7 64.2 225.1 80.9 234.7 105.7 228 129.2 207.4 152.2 227.2 175.3 235 191.5 225.6 208.2 216 213.2 190.4 207.1 159.7 237.9 149.5 255.2 134.2 255.2 114.8 255.2 96 236.4 79.7 207.2 69.7 213.7 37.8 208.2 14.4 191.3 4.7 175.1-4.7 151.6 3.4 128.3 23.7 104.1 2.2 80.9-4.4 64 5.4 47.8 14.8 43.2 39.2 49.1 69.5 20.5 79.5 0.8 96.1 0.8 114.8Z" class="a"/><path d="M201 79.7C198.7 78.9 196.3 78.1 193.8 77.4 194.2 75.7 194.5 74 194.9 72.4 200.4 45.7 196.8 24.2 184.5 17.1 172.7 10.3 153.4 17.4 134 34.3 132.1 35.9 130.2 37.7 128.3 39.5 127.1 38.3 125.8 37.1 124.6 36 104.2 17.9 83.7 10.3 71.4 17.4 59.7 24.2 56.2 44.4 61.1 69.8 61.6 72.2 62.2 74.7 62.8 77.2 59.9 78.1 57.1 78.9 54.4 79.9 30.5 88.2 15.2 101.3 15.2 114.8 15.2 128.8 31.6 142.9 56.6 151.4 58.5 152.1 60.6 152.7 62.7 153.3 62 156.1 61.4 158.8 60.9 161.4 56.2 186.3 59.9 206 71.6 212.8 83.7 219.8 104.1 212.6 123.9 195.3 125.5 193.9 127.1 192.5 128.6 190.9 130.7 192.9 132.7 194.8 134.7 196.5 153.9 213 172.9 219.7 184.7 212.9 196.8 205.9 200.7 184.7 195.6 158.8 195.2 156.9 194.8 154.9 194.2 152.8 195.7 152.4 197.1 151.9 198.4 151.5 224.3 142.9 241.2 129 241.2 114.8 241.2 101.2 225.4 88.1 201 79.7L201 79.7 201 79.7Z" class="b"/><path d="M195.4 142.3C194.2 142.7 192.9 143.1 191.6 143.5 188.8 134.5 184.9 124.8 180.2 114.9 184.7 105.2 188.4 95.7 191.2 86.7 193.5 87.4 195.7 88.1 197.9 88.8 218.8 96 231.5 106.6 231.5 114.8 231.5 123.6 217.8 134.9 195.4 142.3L195.4 142.3 195.4 142.3ZM186.1 160.7C188.4 172.1 188.7 182.5 187.2 190.5 185.9 197.8 183.2 202.6 179.8 204.6 172.7 208.7 157.5 203.3 141 189.2 139.2 187.6 137.3 185.8 135.4 184 141.7 177.1 148.1 169 154.3 160 165.2 159 175.5 157.4 184.9 155.3 185.4 157.1 185.8 158.9 186.1 160.7L186.1 160.7 186.1 160.7ZM92.3 203.9C85.3 206.3 79.8 206.4 76.4 204.5 69.3 200.3 66.3 184.5 70.4 163.2 70.8 160.7 71.4 158.2 72 155.7 81.3 157.7 91.5 159.2 102.5 160.1 108.7 168.9 115.3 177 121.9 184.1 120.4 185.4 119 186.8 117.6 188 108.8 195.7 100 201.1 92.3 203.9L92.3 203.9 92.3 203.9ZM59.7 142.3C48.7 138.5 39.6 133.6 33.3 128.3 27.7 123.5 24.9 118.7 24.9 114.8 24.9 106.6 37.2 96.1 57.6 89 60.1 88.1 62.7 87.3 65.4 86.5 68.2 95.7 71.9 105.4 76.4 115.1 71.9 124.9 68.1 134.7 65.3 144 63.3 143.5 61.5 142.9 59.7 142.3L59.7 142.3 59.7 142.3ZM70.6 67.9C66.4 46.2 69.2 29.8 76.3 25.7 83.8 21.3 100.6 27.6 118.2 43.2 119.3 44.2 120.4 45.3 121.6 46.4 115 53.4 108.5 61.4 102.3 70.2 91.7 71.2 81.5 72.7 72.2 74.9 71.6 72.5 71.1 70.2 70.6 67.9L70.6 67.9 70.6 67.9ZM168.1 92C165.8 88.1 163.5 84.3 161.2 80.7 168.4 81.6 175.3 82.8 181.8 84.3 179.9 90.5 177.4 97 174.6 103.7 172.5 99.8 170.4 95.9 168.1 92L168.1 92 168.1 92ZM128.3 53.3C132.8 58.1 137.2 63.5 141.6 69.3 137.2 69.1 132.7 69 128.2 69 123.8 69 119.3 69.1 114.9 69.3 119.3 63.5 123.8 58.1 128.3 53.3L128.3 53.3 128.3 53.3ZM88.3 92C86.1 95.9 84 99.8 81.9 103.7 79.1 97.1 76.7 90.5 74.8 84.2 81.2 82.7 88.1 81.5 95.3 80.7 92.9 84.4 90.6 88.2 88.3 92L88.3 92 88.3 92ZM95.5 149.7C88.1 148.9 81.1 147.8 74.6 146.4 76.6 139.9 79.1 133.2 82 126.4 84 130.3 86.1 134.2 88.4 138.1L88.4 138.1C90.7 142.1 93 145.9 95.5 149.7L95.5 149.7 95.5 149.7ZM128.6 177.1C124 172.2 119.5 166.7 115 160.8 119.3 161 123.7 161.1 128.2 161.1 132.8 161.1 137.4 161 141.9 160.8 137.5 166.8 133 172.2 128.6 177.1L128.6 177.1 128.6 177.1ZM174.7 126.1C177.7 133 180.2 139.6 182.3 146 175.7 147.4 168.6 148.7 161.2 149.5 163.5 145.8 165.8 142 168.1 138 170.4 134.1 172.6 130.1 174.7 126.1L174.7 126.1 174.7 126.1ZM159.8 133.2C156.2 139.4 152.6 145.2 148.9 150.7 142.2 151.2 135.3 151.4 128.2 151.4 121.2 151.4 114.3 151.2 107.8 150.8 103.9 145.2 100.2 139.3 96.7 133.3L96.7 133.3C93.2 127.2 90 121.1 87.1 115.1 90 109 93.2 102.9 96.7 96.9L96.7 96.9C100.2 90.8 103.9 85 107.6 79.4 114.4 78.9 121.3 78.6 128.2 78.6L128.2 78.6C135.2 78.6 142.1 78.9 148.8 79.4 152.6 84.9 156.2 90.8 159.7 96.8 163.3 102.9 166.5 109 169.5 114.9 166.5 121 163.3 127.1 159.8 133.2L159.8 133.2 159.8 133.2ZM179.7 25.4C187.2 29.8 190.2 47.4 185.4 70.5 185.1 71.9 184.8 73.4 184.4 75 175 72.8 164.9 71.2 154.2 70.2 148 61.4 141.6 53.3 135.1 46.4 136.8 44.7 138.6 43.1 140.3 41.6 157 27.1 172.6 21.3 179.7 25.4L179.7 25.4 179.7 25.4Z" class="a"/><path d="M128.2 94.7C139.4 94.7 148.4 103.7 148.4 114.8 148.4 126 139.4 135 128.2 135 117.1 135 108 126 108 114.8 108 103.7 117.1 94.7 128.2 94.7" class="b"/></svg>