<?xml version="1.0" standalone="no"?>
<!DOCTYPE svg PUBLIC "-//W3C//DTD SVG 20010904//EN"
 "http://www.w3.org/TR/2001/REC-SVG-20010904/DTD/svg10.dtd">
<svg version="1.0" xmlns="http://www.w3.org/2000/svg"
 width="700.000000pt" height="700.000000pt" viewBox="0 0 700.000000 700.000000"
 preserveAspectRatio="xMidYMid meet">
<metadata>
Created by potrace 1.14, written by Peter Selinger 2001-2017
</metadata>
<g transform="translate(0.000000,700.000000) scale(0.100000,-0.100000)"
fill="#000000" stroke="none">
<path d="M1275 6990 c-90 -14 -122 -19 -136 -24 -8 -3 -25 -7 -39 -10 -74 -12
-280 -95 -375 -150 -235 -137 -435 -346 -558 -585 -54 -104 -122 -286 -133
-359 -3 -20 -8 -40 -10 -43 -16 -27 -19 -390 -19 -2329 0 -2086 1 -2210 18
-2300 115 -602 569 -1051 1182 -1169 97 -19 170 -20 2285 -20 1791 0 2199 2
2260 14 41 7 91 16 110 19 130 21 335 106 480 200 354 230 600 623 649 1036 9
76 8 4391 -1 4465 -19 156 -73 333 -137 452 -17 31 -31 60 -31 65 0 10 -111
173 -152 223 -60 72 -191 194 -268 249 -186 134 -345 200 -630 262 -46 11
-4429 14 -4495 4z"/>
</g>
</svg>
